<svg width="137" height="139" viewBox="0 0 137 139" fill="none" xmlns="http://www.w3.org/2000/svg">
<g id="Group 19">
<path id="Vector 13" d="M39.1972 50.311C39.1972 50.311 19.2545 63.3259 20.0216 75.1208C20.7886 86.9157 38.0466 89.356 38.0466 89.356C38.0466 89.356 44.5663 115.183 55.8799 118.64C67.1935 122.097 80.8082 107.252 80.8082 107.252C80.8082 107.252 94.4228 114.138 101.71 109.895C108.996 105.653 107.079 75.1208 107.079 75.1208C107.079 75.1208 112.716 67.5965 113.023 58.0386C113.33 48.4807 91.163 41.3631 91.163 41.3631C91.163 41.3631 70.0698 19.3634 56.0717 24.8909C42.0735 30.4184 39.1972 50.311 39.1972 50.311Z" fill="#D77A07"/>
<g id="Vector 14" filter="url(#filter0_f_208_884)">
<path d="M48.0181 46.6503C43.9912 35.8722 47.0593 28.3479 57.9893 24.4841C71.604 21.2303 90.2043 40.7529 90.7796 40.7529C91.3549 40.7529 111.106 49.294 112.64 56.6149C114.515 65.5627 107.015 66.5117 103.435 67.7997C104.586 69.8333 106.759 72.8159 107.079 75.1206C107.079 100.134 104.97 102.167 100.176 105.218C96.3405 107.658 87.8393 101.218 84.0681 97.6936C83.2372 99.5916 81.5753 103.754 81.5753 105.218C81.5753 107.048 68.3442 115.589 58.7564 114.166C49.1686 112.742 46.2922 90.576 46.2922 87.9323C46.2922 85.8174 50.2552 80.8147 52.2367 78.5778C33.6148 85.0078 26.388 76.5442 24.2403 70.0367C22.0927 63.5291 39.0055 51.6665 48.0181 46.6503Z" fill="url(#paint0_linear_208_884)"/>
</g>
<g id="Vector 15" filter="url(#filter1_f_208_884)">
<path d="M47.961 47.7522C43.9342 36.9742 47.0022 29.4499 57.9323 25.586C71.547 22.3323 90.1473 41.8548 90.7226 41.8548C91.2978 41.8548 111.049 50.3959 112.583 57.7168C114.458 66.6647 106.958 67.6137 103.378 68.9016C104.529 70.9352 106.702 73.9178 107.022 76.2226C107.022 101.236 104.912 103.269 100.119 106.32C96.2835 108.76 87.7823 102.32 84.0111 98.7955C83.1802 100.694 81.5183 104.856 81.5183 106.32C81.5183 108.15 68.2871 116.691 58.6993 115.268C49.1115 113.844 46.2352 91.6779 46.2352 89.0342C46.2352 86.9193 50.1982 81.9166 52.1796 79.6797C29.5309 87.7366 20.7101 84.2795 24.1833 71.1386C27.6565 57.9977 38.9485 52.7684 47.961 47.7522Z" fill="url(#paint1_linear_208_884)"/>
</g>
<g id="Vector 16" filter="url(#filter2_f_208_884)">
<path d="M39.7508 50.6405C33.9214 54.2196 19.6164 67.5194 21.7257 76.4672C22.8738 81.3373 29.8294 86.1153 32.8753 87.9662C34.516 88.9632 35.0223 89.1109 32.8753 87.9662C31.8562 87.4228 30.2392 86.5882 27.8619 85.415C18.3506 80.7211 20.0514 71.9933 20.5752 70.3664C23.2597 62.0286 36.8744 50.8439 39.7508 50.6405Z" fill="#E2F3FF" fill-opacity="0.7"/>
</g>
<path id="Vector 17" d="M83.6631 70.3695C85.538 71.6933 90.0038 73.0579 92.8674 67.9255" stroke="black"/>
<g id="Vector 18" filter="url(#filter3_f_208_884)">
<path d="M49.1469 45.4172L39.9426 49.8911C42.819 37.6895 47.2293 30.321 53.9408 27.2706C55.1746 26.7099 47.6129 33.7614 49.1469 45.4172Z" fill="url(#paint2_linear_208_884)"/>
</g>
<g id="Group 3">
<ellipse id="Ellipse 2" cx="96.3403" cy="56.2086" rx="5.75267" ry="6.10079" fill="url(#paint3_radial_208_884)" fill-opacity="0.51"/>
<g id="Ellipse 5">
<path d="M102.093 56.2086C102.093 59.578 99.5174 62.3094 96.3403 62.3094C93.1632 62.3094 90.5876 59.578 90.5876 56.2086C90.5876 52.8392 93.1632 50.1078 96.3403 50.1078C99.5174 50.1078 102.093 52.8392 102.093 56.2086Z" fill="#5D4747"/>
<path d="M102.093 56.2086C102.093 59.578 99.5174 62.3094 96.3403 62.3094C93.1632 62.3094 90.5876 59.578 90.5876 56.2086C90.5876 52.8392 93.1632 50.1078 96.3403 50.1078C99.5174 50.1078 102.093 52.8392 102.093 56.2086Z" fill="url(#paint4_radial_208_884)" fill-opacity="0.51"/>
</g>
<ellipse id="Ellipse 4" cx="97.8738" cy="53.7673" rx="1.15021" ry="1.21981" fill="url(#paint5_radial_208_884)"/>
</g>
<g id="Group 4">
<ellipse id="Ellipse 2_2" cx="67.5768" cy="60.2754" rx="6.5197" ry="6.91423" fill="url(#paint6_radial_208_884)" fill-opacity="0.51"/>
<g id="Ellipse 5_2">
<path d="M74.0965 60.2754C74.0965 64.0941 71.1776 67.1897 67.5768 67.1897C63.9761 67.1897 61.0571 64.0941 61.0571 60.2754C61.0571 56.4568 63.9761 53.3612 67.5768 53.3612C71.1776 53.3612 74.0965 56.4568 74.0965 60.2754Z" fill="#5D4747"/>
<path d="M74.0965 60.2754C74.0965 64.0941 71.1776 67.1897 67.5768 67.1897C63.9761 67.1897 61.0571 64.0941 61.0571 60.2754C61.0571 56.4568 63.9761 53.3612 67.5768 53.3612C71.1776 53.3612 74.0965 56.4568 74.0965 60.2754Z" fill="url(#paint7_radial_208_884)" fill-opacity="0.51"/>
</g>
<ellipse id="Ellipse 4_2" cx="69.315" cy="57.509" rx="1.30357" ry="1.38245" fill="url(#paint8_radial_208_884)"/>
</g>
<g id="Vector 19" filter="url(#filter4_f_208_884)">
<path d="M42.8189 41.2859C41.2849 44.5396 39.7508 50.2337 39.1755 50.437C42.0902 33.3548 51.8314 25.6272 56.2418 25.0171C50.4891 27.4574 44.2564 38.2368 42.8189 41.2859Z" fill="#E2F3FF" fill-opacity="0.74"/>
</g>
<g id="Vector 20" filter="url(#filter5_f_208_884)">
<path d="M38.3242 88.6681L49.5303 80.4029C40.0221 85.362 21.1607 75.4498 27.862 66.2986C11.371 79.1102 30.627 86.8667 38.3242 88.6681Z" fill="#B76D1A"/>
</g>
<g id="Vector 21" filter="url(#filter6_f_208_884)">
<path d="M37.0662 87.8549C35.0719 87.8549 27.2866 83.991 29.0124 85.4145C29.0124 86.4313 36.1713 88.4649 38.792 89.075C39.7124 100.789 52.7901 118.359 55.0912 117.139C48.955 111.445 41.1569 97.6839 39.9425 90.9052C40.326 90.4307 39.0604 87.8549 37.0662 87.8549Z" fill="#D9D9D9"/>
</g>
<g id="Vector 22" filter="url(#filter7_f_208_884)">
<path d="M81.9371 106.157L80.9783 107.174C92.637 113.031 99.1312 110.97 100.921 109.207C95.5517 112.136 86.0278 108.394 81.9371 106.157Z" fill="#D9D9D9"/>
</g>
</g>
<defs>
<filter id="filter0_f_208_884" x="0.35371" y="0.418285" width="136.282" height="137.607" filterUnits="userSpaceOnUse" color-interpolation-filters="sRGB">
<feFlood flood-opacity="0" result="BackgroundImageFix"/>
<feBlend mode="normal" in="SourceGraphic" in2="BackgroundImageFix" result="shape"/>
<feGaussianBlur stdDeviation="11.85" result="effect1_foregroundBlur_208_884"/>
</filter>
<filter id="filter1_f_208_884" x="12.1517" y="13.9202" width="112.027" height="112.807" filterUnits="userSpaceOnUse" color-interpolation-filters="sRGB">
<feFlood flood-opacity="0" result="BackgroundImageFix"/>
<feBlend mode="normal" in="SourceGraphic" in2="BackgroundImageFix" result="shape"/>
<feGaussianBlur stdDeviation="5.65" result="effect1_foregroundBlur_208_884"/>
</filter>
<filter id="filter2_f_208_884" x="16.1167" y="46.6405" width="27.634" height="46.1298" filterUnits="userSpaceOnUse" color-interpolation-filters="sRGB">
<feFlood flood-opacity="0" result="BackgroundImageFix"/>
<feBlend mode="normal" in="SourceGraphic" in2="BackgroundImageFix" result="shape"/>
<feGaussianBlur stdDeviation="2" result="effect1_foregroundBlur_208_884"/>
</filter>
<filter id="filter3_f_208_884" x="33.4426" y="20.7395" width="27.135" height="35.6516" filterUnits="userSpaceOnUse" color-interpolation-filters="sRGB">
<feFlood flood-opacity="0" result="BackgroundImageFix"/>
<feBlend mode="normal" in="SourceGraphic" in2="BackgroundImageFix" result="shape"/>
<feGaussianBlur stdDeviation="3.25" result="effect1_foregroundBlur_208_884"/>
</filter>
<filter id="filter4_f_208_884" x="35.3755" y="21.2171" width="24.6662" height="33.0199" filterUnits="userSpaceOnUse" color-interpolation-filters="sRGB">
<feFlood flood-opacity="0" result="BackgroundImageFix"/>
<feBlend mode="normal" in="SourceGraphic" in2="BackgroundImageFix" result="shape"/>
<feGaussianBlur stdDeviation="1.9" result="effect1_foregroundBlur_208_884"/>
</filter>
<filter id="filter5_f_208_884" x="8.47769" y="53.3986" width="53.9526" height="48.1695" filterUnits="userSpaceOnUse" color-interpolation-filters="sRGB">
<feFlood flood-opacity="0" result="BackgroundImageFix"/>
<feBlend mode="normal" in="SourceGraphic" in2="BackgroundImageFix" result="shape"/>
<feGaussianBlur stdDeviation="6.45" result="effect1_foregroundBlur_208_884"/>
</filter>
<filter id="filter6_f_208_884" x="23.4646" y="79.7996" width="36.9267" height="42.6994" filterUnits="userSpaceOnUse" color-interpolation-filters="sRGB">
<feFlood flood-opacity="0" result="BackgroundImageFix"/>
<feBlend mode="normal" in="SourceGraphic" in2="BackgroundImageFix" result="shape"/>
<feGaussianBlur stdDeviation="2.65" result="effect1_foregroundBlur_208_884"/>
</filter>
<filter id="filter7_f_208_884" x="76.8783" y="102.057" width="28.1426" height="13.0909" filterUnits="userSpaceOnUse" color-interpolation-filters="sRGB">
<feFlood flood-opacity="0" result="BackgroundImageFix"/>
<feBlend mode="normal" in="SourceGraphic" in2="BackgroundImageFix" result="shape"/>
<feGaussianBlur stdDeviation="2.05" result="effect1_foregroundBlur_208_884"/>
</filter>
<linearGradient id="paint0_linear_208_884" x1="80.595" y1="42.3022" x2="67.0381" y2="114.05" gradientUnits="userSpaceOnUse">
<stop offset="0.444725" stop-color="#FADE3C"/>
<stop offset="1" stop-color="#F3B522" stop-opacity="0"/>
</linearGradient>
<linearGradient id="paint1_linear_208_884" x1="80.538" y1="43.4042" x2="66.9811" y2="115.152" gradientUnits="userSpaceOnUse">
<stop stop-color="#FADE3C" stop-opacity="0"/>
<stop offset="0.955" stop-color="#F3B522"/>
</linearGradient>
<linearGradient id="paint2_linear_208_884" x1="54.1326" y1="30.7277" x2="34.4647" y2="48.891" gradientUnits="userSpaceOnUse">
<stop stop-color="#EF963B"/>
<stop offset="1" stop-color="#864401"/>
</linearGradient>
<radialGradient id="paint3_radial_208_884" cx="0" cy="0" r="1" gradientUnits="userSpaceOnUse" gradientTransform="translate(98.2579 51.938) rotate(118.963) scale(10.6917 10.3764)">
<stop stop-opacity="0"/>
<stop offset="0.415" stop-color="#5D4747"/>
<stop offset="0.985"/>
</radialGradient>
<radialGradient id="paint4_radial_208_884" cx="0" cy="0" r="1" gradientUnits="userSpaceOnUse" gradientTransform="translate(97.8744 55.3951) rotate(145.164) scale(7.47599 7.64157)">
<stop offset="0.383443" stop-color="#5D4747" stop-opacity="0"/>
<stop offset="0.899829" stop-color="#AD5C42"/>
<stop offset="0.99531" stop-color="#F29C4D"/>
</radialGradient>
<radialGradient id="paint5_radial_208_884" cx="0" cy="0" r="1" gradientUnits="userSpaceOnUse" gradientTransform="translate(97.8738 53.7673) rotate(90) scale(1.21981 1.15021)">
<stop offset="0.595" stop-color="white" stop-opacity="0.8"/>
<stop offset="0.76" stop-color="white" stop-opacity="0.540816"/>
<stop offset="1" stop-color="#999999" stop-opacity="0"/>
</radialGradient>
<radialGradient id="paint6_radial_208_884" cx="0" cy="0" r="1" gradientUnits="userSpaceOnUse" gradientTransform="translate(69.7501 55.4355) rotate(118.963) scale(12.1173 11.7599)">
<stop stop-opacity="0"/>
<stop offset="0.415" stop-color="#5D4747"/>
<stop offset="0.985"/>
</radialGradient>
<radialGradient id="paint7_radial_208_884" cx="0" cy="0" r="1" gradientUnits="userSpaceOnUse" gradientTransform="translate(69.3154 59.3535) rotate(145.164) scale(8.47279 8.66044)">
<stop offset="0.383443" stop-color="#5D4747" stop-opacity="0"/>
<stop offset="0.899829" stop-color="#AD5C42"/>
<stop offset="0.99531" stop-color="#F29C4D"/>
</radialGradient>
<radialGradient id="paint8_radial_208_884" cx="0" cy="0" r="1" gradientUnits="userSpaceOnUse" gradientTransform="translate(69.315 57.509) rotate(90) scale(1.38245 1.30357)">
<stop offset="0.595" stop-color="white" stop-opacity="0.8"/>
<stop offset="0.76" stop-color="white" stop-opacity="0.540816"/>
<stop offset="1" stop-color="#999999" stop-opacity="0"/>
</radialGradient>
</defs>
</svg>
