<svg width="478" height="106" viewBox="0 0 478 106" fill="none" xmlns="http://www.w3.org/2000/svg">
<path d="M72.85 87.3302H33.55L27.25 105.93H0.4L38.5 0.630234H68.2L106.3 105.93H79.15L72.85 87.3302ZM66.25 67.5302L53.2 28.9802L40.3 67.5302H66.25ZM212.096 105.93H186.446L143.546 40.9802V105.93H117.896V0.630234H143.546L186.446 65.8802V0.630234H212.096V105.93ZM256.339 0.630234V105.93H230.689V0.630234H256.339ZM394.177 0.630234V105.93H368.527V42.7802L344.977 105.93H324.277L300.577 42.6302V105.93H274.927V0.630234H305.227L334.777 73.5302L364.027 0.630234H394.177ZM438.272 21.1802V42.4802H472.622V62.2802H438.272V85.3802H477.122V105.93H412.622V0.630234H477.122V21.1802H438.272Z" fill="white"/>
</svg>
