<svg width="820" height="161" viewBox="0 0 820 161" fill="none" xmlns="http://www.w3.org/2000/svg">
<path d="M72.85 102.4H33.55L27.25 121H0.4L38.5 15.7H68.2L106.3 121H79.15L72.85 102.4ZM66.25 82.6L53.2 44.05L40.3 82.6H66.25ZM164.546 99.25V121H151.496C142.196 121 134.946 118.75 129.746 114.25C124.546 109.65 121.946 102.2 121.946 91.9V58.6H111.746V37.3H121.946V16.9H147.596V37.3H164.396V58.6H147.596V92.2C147.596 94.7 148.196 96.5 149.396 97.6C150.596 98.7 152.596 99.25 155.396 99.25H164.546ZM173.733 79C173.733 70.4 175.333 62.85 178.533 56.35C181.833 49.85 186.283 44.85 191.883 41.35C197.483 37.85 203.733 36.1 210.633 36.1C216.533 36.1 221.683 37.3 226.083 39.7C230.583 42.1 234.033 45.25 236.433 49.15V37.3H262.083V121H236.433V109.15C233.933 113.05 230.433 116.2 225.933 118.6C221.533 121 216.383 122.2 210.483 122.2C203.683 122.2 197.483 120.45 191.883 116.95C186.283 113.35 181.833 108.3 178.533 101.8C175.333 95.2 173.733 87.6 173.733 79ZM236.433 79.15C236.433 72.75 234.633 67.7 231.033 64C227.533 60.3 223.233 58.45 218.133 58.45C213.033 58.45 208.683 60.3 205.083 64C201.583 67.6 199.833 72.6 199.833 79C199.833 85.4 201.583 90.5 205.083 94.3C208.683 98 213.033 99.85 218.133 99.85C223.233 99.85 227.533 98 231.033 94.3C234.633 90.6 236.433 85.55 236.433 79.15ZM275.54 79.3C275.54 71 277.24 63.6 280.64 57.1C284.14 50.6 288.79 45.55 294.59 41.95C300.49 38.25 306.89 36.4 313.79 36.4C319.09 36.4 323.84 37.35 328.04 39.25C332.24 41.05 335.64 43.6 338.24 46.9V37.3H363.89V160.9H338.24V110.5C335.34 114 331.79 116.8 327.59 118.9C323.49 121 318.79 122.05 313.49 122.05C306.69 122.05 300.39 120.25 294.59 116.65C288.79 113.05 284.14 108 280.64 101.5C277.24 95 275.54 87.6 275.54 79.3ZM338.24 79.15C338.24 74.65 337.34 70.9 335.54 67.9C333.84 64.8 331.59 62.5 328.79 61C325.99 59.4 323.04 58.6 319.94 58.6C316.94 58.6 314.04 59.4 311.24 61C308.44 62.5 306.14 64.8 304.34 67.9C302.54 71 301.64 74.8 301.64 79.3C301.64 83.8 302.54 87.6 304.34 90.7C306.14 93.7 308.44 96 311.24 97.6C314.04 99.1 316.94 99.85 319.94 99.85C322.94 99.85 325.84 99.1 328.64 97.6C331.54 96 333.84 93.65 335.54 90.55C337.34 87.45 338.24 83.65 338.24 79.15ZM465.096 37.3V121H439.446V109.6C436.846 113.3 433.296 116.3 428.796 118.6C424.396 120.8 419.496 121.9 414.096 121.9C407.696 121.9 402.046 120.5 397.146 117.7C392.246 114.8 388.446 110.65 385.746 105.25C383.046 99.85 381.696 93.5 381.696 86.2V37.3H407.196V82.75C407.196 88.35 408.646 92.7 411.546 95.8C414.446 98.9 418.346 100.45 423.246 100.45C428.246 100.45 432.196 98.9 435.096 95.8C437.996 92.7 439.446 88.35 439.446 82.75V37.3H465.096ZM562.421 77.8C562.421 80.2 562.271 82.7 561.971 85.3H503.921C504.321 90.5 505.971 94.5 508.871 97.3C511.871 100 515.521 101.35 519.821 101.35C526.221 101.35 530.671 98.65 533.171 93.25H560.471C559.071 98.75 556.521 103.7 552.821 108.1C549.221 112.5 544.671 115.95 539.171 118.45C533.671 120.95 527.521 122.2 520.721 122.2C512.521 122.2 505.221 120.45 498.821 116.95C492.421 113.45 487.421 108.45 483.821 101.95C480.221 95.45 478.421 87.85 478.421 79.15C478.421 70.45 480.171 62.85 483.671 56.35C487.271 49.85 492.271 44.85 498.671 41.35C505.071 37.85 512.421 36.1 520.721 36.1C528.821 36.1 536.021 37.8 542.321 41.2C548.621 44.6 553.521 49.45 557.021 55.75C560.621 62.05 562.421 69.4 562.421 77.8ZM536.171 71.05C536.171 66.65 534.671 63.15 531.671 60.55C528.671 57.95 524.921 56.65 520.421 56.65C516.121 56.65 512.471 57.9 509.471 60.4C506.571 62.9 504.771 66.45 504.071 71.05H536.171ZM633.389 10V121H607.739V10H633.389ZM690.078 122.2C681.878 122.2 674.478 120.45 667.878 116.95C661.378 113.45 656.228 108.45 652.428 101.95C648.728 95.45 646.878 87.85 646.878 79.15C646.878 70.55 648.778 63 652.578 56.5C656.378 49.9 661.578 44.85 668.178 41.35C674.778 37.85 682.178 36.1 690.378 36.1C698.578 36.1 705.978 37.85 712.578 41.35C719.178 44.85 724.378 49.9 728.178 56.5C731.978 63 733.878 70.55 733.878 79.15C733.878 87.75 731.928 95.35 728.028 101.95C724.228 108.45 718.978 113.45 712.278 116.95C705.678 120.45 698.278 122.2 690.078 122.2ZM690.078 100C694.978 100 699.128 98.2 702.528 94.6C706.028 91 707.778 85.85 707.778 79.15C707.778 72.45 706.078 67.3 702.678 63.7C699.378 60.1 695.278 58.3 690.378 58.3C685.378 58.3 681.228 60.1 677.928 63.7C674.628 67.2 672.978 72.35 672.978 79.15C672.978 85.85 674.578 91 677.778 94.6C681.078 98.2 685.178 100 690.078 100ZM773.136 10V121H747.486V10H773.136ZM804.624 28.6C800.124 28.6 796.424 27.3 793.524 24.7C790.724 22 789.324 18.7 789.324 14.8C789.324 10.8 790.724 7.49999 793.524 4.89999C796.424 2.19999 800.124 0.849991 804.624 0.849991C809.024 0.849991 812.624 2.19999 815.424 4.89999C818.324 7.49999 819.774 10.8 819.774 14.8C819.774 18.7 818.324 22 815.424 24.7C812.624 27.3 809.024 28.6 804.624 28.6ZM817.374 37.3V121H791.724V37.3H817.374Z" fill="white"/>
</svg>
