<svg width="597" height="106" viewBox="0 0 597 106" fill="none" xmlns="http://www.w3.org/2000/svg">
<path d="M119.331 0.539413V105.839H93.6808V42.6894L70.1308 105.839H49.4308L25.7308 42.5394V105.839H0.0807621V0.539413H30.3808L59.9308 73.4394L89.1808 0.539413H119.331ZM203.326 87.2394H164.026L157.726 105.839H130.876L168.976 0.539413H198.676L236.776 105.839H209.626L203.326 87.2394ZM196.726 67.4394L183.676 28.8894L170.776 67.4394H196.726ZM302.072 105.839L280.172 66.0894H274.022V105.839H248.372V0.539413H291.422C299.722 0.539413 306.772 1.98941 312.572 4.88941C318.472 7.78941 322.872 11.7894 325.772 16.8894C328.672 21.8894 330.122 27.4894 330.122 33.6894C330.122 40.6894 328.122 46.9394 324.122 52.4394C320.222 57.9394 314.422 61.8394 306.722 64.1394L331.022 105.839H302.072ZM274.022 47.9394H289.922C294.622 47.9394 298.122 46.7894 300.422 44.4894C302.822 42.1894 304.022 38.9394 304.022 34.7394C304.022 30.7394 302.822 27.5894 300.422 25.2894C298.122 22.9894 294.622 21.8394 289.922 21.8394H274.022V47.9394ZM445.073 0.539413L407.723 105.839H375.623L338.273 0.539413H365.573L391.673 80.0394L417.923 0.539413H445.073ZM481.444 21.0894V42.3894H515.794V62.1894H481.444V85.2894H520.294V105.839H455.794V0.539413H520.294V21.0894H481.444ZM562.596 86.0394H596.196V105.839H536.946V0.539413H562.596V86.0394Z" fill="white"/>
</svg>
