<svg width="955" height="163" viewBox="0 0 955 163" fill="none" xmlns="http://www.w3.org/2000/svg">
<path d="M107.15 15.7L69.8 121H37.7L0.35 15.7H27.65L53.75 95.2L80 15.7H107.15ZM130.77 28.6C126.27 28.6 122.57 27.3 119.67 24.7C116.87 22 115.47 18.7 115.47 14.8C115.47 10.8 116.87 7.49999 119.67 4.89999C122.57 2.19999 126.27 0.849991 130.77 0.849991C135.17 0.849991 138.77 2.19999 141.57 4.89999C144.47 7.49999 145.92 10.8 145.92 14.8C145.92 18.7 144.47 22 141.57 24.7C138.77 27.3 135.17 28.6 130.77 28.6ZM143.52 37.3V121H117.87V37.3H143.52ZM157.009 79C157.009 70.4 158.609 62.85 161.809 56.35C165.109 49.85 169.559 44.85 175.159 41.35C180.759 37.85 187.009 36.1 193.909 36.1C199.409 36.1 204.409 37.25 208.909 39.55C213.509 41.85 217.109 44.95 219.709 48.85V10H245.359V121H219.709V109C217.309 113 213.859 116.2 209.359 118.6C204.959 121 199.809 122.2 193.909 122.2C187.009 122.2 180.759 120.45 175.159 116.95C169.559 113.35 165.109 108.3 161.809 101.8C158.609 95.2 157.009 87.6 157.009 79ZM219.709 79.15C219.709 72.75 217.909 67.7 214.309 64C210.809 60.3 206.509 58.45 201.409 58.45C196.309 58.45 191.959 60.3 188.359 64C184.859 67.6 183.109 72.6 183.109 79C183.109 85.4 184.859 90.5 188.359 94.3C191.959 98 196.309 99.85 201.409 99.85C206.509 99.85 210.809 98 214.309 94.3C217.909 90.6 219.709 85.55 219.709 79.15ZM342.815 77.8C342.815 80.2 342.665 82.7 342.365 85.3H284.315C284.715 90.5 286.365 94.5 289.265 97.3C292.265 100 295.915 101.35 300.215 101.35C306.615 101.35 311.065 98.65 313.565 93.25H340.865C339.465 98.75 336.915 103.7 333.215 108.1C329.615 112.5 325.065 115.95 319.565 118.45C314.065 120.95 307.915 122.2 301.115 122.2C292.915 122.2 285.615 120.45 279.215 116.95C272.815 113.45 267.815 108.45 264.215 101.95C260.615 95.45 258.815 87.85 258.815 79.15C258.815 70.45 260.565 62.85 264.065 56.35C267.665 49.85 272.665 44.85 279.065 41.35C285.465 37.85 292.815 36.1 301.115 36.1C309.215 36.1 316.415 37.8 322.715 41.2C329.015 44.6 333.915 49.45 337.415 55.75C341.015 62.05 342.815 69.4 342.815 77.8ZM316.565 71.05C316.565 66.65 315.065 63.15 312.065 60.55C309.065 57.95 305.315 56.65 300.815 56.65C296.515 56.65 292.865 57.9 289.865 60.4C286.965 62.9 285.165 66.45 284.465 71.05H316.565ZM394.447 122.2C386.247 122.2 378.847 120.45 372.247 116.95C365.747 113.45 360.597 108.45 356.797 101.95C353.097 95.45 351.247 87.85 351.247 79.15C351.247 70.55 353.147 63 356.947 56.5C360.747 49.9 365.947 44.85 372.547 41.35C379.147 37.85 386.547 36.1 394.747 36.1C402.947 36.1 410.347 37.85 416.947 41.35C423.547 44.85 428.747 49.9 432.547 56.5C436.347 63 438.247 70.55 438.247 79.15C438.247 87.75 436.297 95.35 432.397 101.95C428.597 108.45 423.347 113.45 416.647 116.95C410.047 120.45 402.647 122.2 394.447 122.2ZM394.447 100C399.347 100 403.497 98.2 406.897 94.6C410.397 91 412.147 85.85 412.147 79.15C412.147 72.45 410.447 67.3 407.047 63.7C403.747 60.1 399.647 58.3 394.747 58.3C389.747 58.3 385.597 60.1 382.297 63.7C378.997 67.2 377.347 72.35 377.347 79.15C377.347 85.85 378.947 91 382.147 94.6C385.447 98.2 389.547 100 394.447 100ZM464.605 28.6C460.105 28.6 456.405 27.3 453.505 24.7C450.705 22 449.305 18.7 449.305 14.8C449.305 10.8 450.705 7.49999 453.505 4.89999C456.405 2.19999 460.105 0.849991 464.605 0.849991C469.005 0.849991 472.605 2.19999 475.405 4.89999C478.305 7.49999 479.755 10.8 479.755 14.8C479.755 18.7 478.305 22 475.405 24.7C472.605 27.3 469.005 28.6 464.605 28.6ZM477.505 131.8C477.505 142.1 474.905 149.5 469.705 154C464.505 158.6 457.255 160.9 447.955 160.9H437.905V139.15H444.055C446.855 139.15 448.855 138.6 450.055 137.5C451.255 136.4 451.855 134.6 451.855 132.1V37.3H477.505V131.8ZM578.596 37.3V121H552.946V109.6C550.346 113.3 546.796 116.3 542.296 118.6C537.896 120.8 532.996 121.9 527.596 121.9C521.196 121.9 515.546 120.5 510.646 117.7C505.746 114.8 501.946 110.65 499.246 105.25C496.546 99.85 495.196 93.5 495.196 86.2V37.3H520.696V82.75C520.696 88.35 522.146 92.7 525.046 95.8C527.946 98.9 531.846 100.45 536.746 100.45C541.746 100.45 545.696 98.9 548.596 95.8C551.496 92.7 552.946 88.35 552.946 82.75V37.3H578.596ZM675.921 77.8C675.921 80.2 675.771 82.7 675.471 85.3H617.421C617.821 90.5 619.471 94.5 622.371 97.3C625.371 100 629.021 101.35 633.321 101.35C639.721 101.35 644.171 98.65 646.671 93.25H673.971C672.571 98.75 670.021 103.7 666.321 108.1C662.721 112.5 658.171 115.95 652.671 118.45C647.171 120.95 641.021 122.2 634.221 122.2C626.021 122.2 618.721 120.45 612.321 116.95C605.921 113.45 600.921 108.45 597.321 101.95C593.721 95.45 591.921 87.85 591.921 79.15C591.921 70.45 593.671 62.85 597.171 56.35C600.771 49.85 605.771 44.85 612.171 41.35C618.571 37.85 625.921 36.1 634.221 36.1C642.321 36.1 649.521 37.8 655.821 41.2C662.121 44.6 667.021 49.45 670.521 55.75C674.121 62.05 675.921 69.4 675.921 77.8ZM649.671 71.05C649.671 66.65 648.171 63.15 645.171 60.55C642.171 57.95 638.421 56.65 633.921 56.65C629.621 56.65 625.971 57.9 622.971 60.4C620.071 62.9 618.271 66.45 617.571 71.05H649.671ZM721.252 36.1C727.152 36.1 732.302 37.3 736.702 39.7C741.202 42.1 744.652 45.25 747.052 49.15V37.3H772.702V120.85C772.702 128.55 771.152 135.5 768.052 141.7C765.052 148 760.402 153 754.102 156.7C747.902 160.4 740.152 162.25 730.852 162.25C718.452 162.25 708.402 159.3 700.702 153.4C693.002 147.6 688.602 139.7 687.502 129.7H712.852C713.652 132.9 715.552 135.4 718.552 137.2C721.552 139.1 725.252 140.05 729.652 140.05C734.952 140.05 739.152 138.5 742.252 135.4C745.452 132.4 747.052 127.55 747.052 120.85V109C744.552 112.9 741.102 116.1 736.702 118.6C732.302 121 727.152 122.2 721.252 122.2C714.352 122.2 708.102 120.45 702.502 116.95C696.902 113.35 692.452 108.3 689.152 101.8C685.952 95.2 684.352 87.6 684.352 79C684.352 70.4 685.952 62.85 689.152 56.35C692.452 49.85 696.902 44.85 702.502 41.35C708.102 37.85 714.352 36.1 721.252 36.1ZM747.052 79.15C747.052 72.75 745.252 67.7 741.652 64C738.152 60.3 733.852 58.45 728.752 58.45C723.652 58.45 719.302 60.3 715.702 64C712.202 67.6 710.452 72.6 710.452 79C710.452 85.4 712.202 90.5 715.702 94.3C719.302 98 723.652 99.85 728.752 99.85C733.852 99.85 738.152 98 741.652 94.3C745.252 90.6 747.052 85.55 747.052 79.15ZM829.359 122.2C821.159 122.2 813.759 120.45 807.159 116.95C800.659 113.45 795.509 108.45 791.709 101.95C788.009 95.45 786.159 87.85 786.159 79.15C786.159 70.55 788.059 63 791.859 56.5C795.659 49.9 800.859 44.85 807.459 41.35C814.059 37.85 821.459 36.1 829.659 36.1C837.859 36.1 845.259 37.85 851.859 41.35C858.459 44.85 863.659 49.9 867.459 56.5C871.259 63 873.159 70.55 873.159 79.15C873.159 87.75 871.209 95.35 867.309 101.95C863.509 108.45 858.259 113.45 851.559 116.95C844.959 120.45 837.559 122.2 829.359 122.2ZM829.359 100C834.259 100 838.409 98.2 841.809 94.6C845.309 91 847.059 85.85 847.059 79.15C847.059 72.45 845.359 67.3 841.959 63.7C838.659 60.1 834.559 58.3 829.659 58.3C824.659 58.3 820.509 60.1 817.209 63.7C813.909 67.2 812.259 72.35 812.259 79.15C812.259 85.85 813.859 91 817.059 94.6C820.359 98.2 824.459 100 829.359 100ZM920.817 122.2C913.517 122.2 907.017 120.95 901.317 118.45C895.617 115.95 891.117 112.55 887.817 108.25C884.517 103.85 882.667 98.95 882.267 93.55H907.617C907.917 96.45 909.267 98.8 911.667 100.6C914.067 102.4 917.017 103.3 920.517 103.3C923.717 103.3 926.167 102.7 927.867 101.5C929.667 100.2 930.567 98.55 930.567 96.55C930.567 94.15 929.317 92.4 926.817 91.3C924.317 90.1 920.267 88.8 914.667 87.4C908.667 86 903.667 84.55 899.667 83.05C895.667 81.45 892.217 79 889.317 75.7C886.417 72.3 884.967 67.75 884.967 62.05C884.967 57.25 886.267 52.9 888.867 49C891.567 45 895.467 41.85 900.567 39.55C905.767 37.25 911.917 36.1 919.017 36.1C929.517 36.1 937.767 38.7 943.767 43.9C949.867 49.1 953.367 56 954.267 64.6H930.567C930.167 61.7 928.867 59.4 926.667 57.7C924.567 56 921.767 55.15 918.267 55.15C915.267 55.15 912.967 55.75 911.367 56.95C909.767 58.05 908.967 59.6 908.967 61.6C908.967 64 910.217 65.8 912.717 67C915.317 68.2 919.317 69.4 924.717 70.6C930.917 72.2 935.967 73.8 939.867 75.4C943.767 76.9 947.167 79.4 950.067 82.9C953.067 86.3 954.617 90.9 954.717 96.7C954.717 101.6 953.317 106 950.517 109.9C947.817 113.7 943.867 116.7 938.667 118.9C933.567 121.1 927.617 122.2 920.817 122.2Z" fill="white"/>
</svg>
