<svg width="517" height="523" viewBox="0 0 517 523" fill="none" xmlns="http://www.w3.org/2000/svg">
<path d="M106.556 161.818C106.556 161.818 2.09529 229.991 6.11299 291.773C10.1307 353.555 100.529 366.337 100.529 366.337C100.529 366.337 134.679 501.618 193.941 519.727C253.202 537.835 324.516 460.075 324.516 460.075C324.516 460.075 395.83 496.146 433.998 473.923C472.166 451.7 462.122 291.773 462.122 291.773C462.122 291.773 491.65 252.36 493.259 202.296C494.869 152.231 378.755 114.949 378.755 114.949C378.755 114.949 268.268 -0.286529 194.945 28.6667C121.622 57.62 106.556 161.818 106.556 161.818Z" fill="#D77A07"/>
<g filter="url(#filter0_f_440_823)">
<path d="M152.759 142.643C131.666 86.1866 147.737 46.7739 204.989 26.535C276.303 9.49171 373.733 111.752 376.746 111.752C379.759 111.752 483.215 156.49 491.25 194.838C501.071 241.707 461.787 246.678 443.038 253.424C449.065 264.076 460.448 279.699 462.122 291.771C462.122 422.792 451.073 433.444 425.963 449.422C405.874 462.204 361.345 428.473 341.591 410.009C337.238 419.951 328.533 441.752 328.533 449.422C328.533 459.009 259.228 503.747 209.007 496.291C158.786 488.835 143.719 372.727 143.719 358.879C143.719 347.801 164.477 321.597 174.856 309.88C77.3143 343.561 39.46 299.228 28.2105 265.141C16.9609 231.055 105.551 168.918 152.759 142.643Z" fill="url(#paint0_linear_440_823)"/>
</g>
<g filter="url(#filter1_f_440_823)">
<path d="M152.461 148.415C131.368 91.9593 147.439 52.5466 204.691 32.3077C276.005 15.2644 373.434 117.524 376.448 117.524C379.461 117.524 482.917 162.263 490.952 200.61C500.773 247.479 461.489 252.45 442.74 259.197C448.766 269.849 460.15 285.472 461.824 297.544C461.824 428.565 450.775 439.217 425.664 455.195C405.576 467.977 361.046 434.246 341.293 415.782C336.94 425.724 328.235 447.525 328.235 455.195C328.235 464.781 258.93 509.52 208.709 502.064C158.487 494.607 143.421 378.5 143.421 364.652C143.421 353.574 164.179 327.37 174.558 315.653C55.9231 357.855 9.71955 339.746 27.9122 270.914C46.1049 202.081 105.253 174.69 152.461 148.415Z" fill="url(#paint1_linear_440_823)"/>
</g>
<g filter="url(#filter2_f_440_823)">
<path d="M109.456 163.545C78.9213 182.292 3.99114 251.957 15.0399 298.826C21.0535 324.336 57.4873 349.363 73.4419 359.058C82.0361 364.281 84.688 365.054 73.4419 359.058C68.1035 356.212 59.6337 351.84 47.1814 345.695C-2.63893 321.108 6.26953 275.391 9.0133 266.87C23.0752 223.196 94.3895 164.61 109.456 163.545Z" fill="#E2F3FF" fill-opacity="0.7"/>
</g>
<path d="M339.47 266.884C349.291 273.818 372.683 280.966 387.682 254.083" stroke="black"/>
<g filter="url(#filter3_f_440_823)">
<path d="M158.672 136.185L110.46 159.62C125.526 95.7074 148.628 57.1112 183.783 41.133C190.245 38.1958 150.637 75.132 158.672 136.185Z" fill="url(#paint2_linear_440_823)"/>
</g>
<ellipse cx="405.873" cy="192.711" rx="30.1328" ry="31.9562" fill="url(#paint3_radial_440_823)" fill-opacity="0.51"/>
<path d="M436.006 192.711C436.006 210.36 422.515 224.667 405.873 224.667C389.231 224.667 375.74 210.36 375.74 192.711C375.74 175.062 389.231 160.754 405.873 160.754C422.515 160.754 436.006 175.062 436.006 192.711Z" fill="#5D4747"/>
<path d="M436.006 192.711C436.006 210.36 422.515 224.667 405.873 224.667C389.231 224.667 375.74 210.36 375.74 192.711C375.74 175.062 389.231 160.754 405.873 160.754C422.515 160.754 436.006 175.062 436.006 192.711Z" fill="url(#paint4_radial_440_823)" fill-opacity="0.51"/>
<ellipse cx="413.906" cy="179.924" rx="6.02485" ry="6.38943" fill="url(#paint5_radial_440_823)"/>
<ellipse cx="255.21" cy="214.013" rx="34.1504" ry="36.217" fill="url(#paint6_radial_440_823)" fill-opacity="0.51"/>
<path d="M289.36 214.013C289.36 234.015 274.071 250.23 255.21 250.23C236.349 250.23 221.059 234.015 221.059 214.013C221.059 194.011 236.349 177.796 255.21 177.796C274.071 177.796 289.36 194.011 289.36 214.013Z" fill="#5D4747"/>
<path d="M289.36 214.013C289.36 234.015 274.071 250.23 255.21 250.23C236.349 250.23 221.059 234.015 221.059 214.013C221.059 194.011 236.349 177.796 255.21 177.796C274.071 177.796 289.36 194.011 289.36 214.013Z" fill="url(#paint7_radial_440_823)" fill-opacity="0.51"/>
<ellipse cx="264.315" cy="199.521" rx="6.82816" ry="7.24136" fill="url(#paint8_radial_440_823)"/>
<g filter="url(#filter4_f_440_823)">
<path d="M125.527 114.544C117.491 131.587 109.456 161.413 106.443 162.478C121.71 73.0011 172.735 32.5233 195.836 29.3276C165.704 42.1101 133.057 98.5732 125.527 114.544Z" fill="#E2F3FF" fill-opacity="0.74"/>
</g>
<g filter="url(#filter5_f_440_823)">
<path d="M101.983 362.736L160.681 319.442C110.877 345.418 12.0802 293.497 47.1816 245.563C-39.199 312.671 61.6649 353.3 101.983 362.736Z" fill="#B76D1A"/>
</g>
<g filter="url(#filter6_f_440_823)">
<path d="M95.3936 358.474C84.9475 358.474 44.1678 338.235 53.2077 345.692C53.2077 351.018 90.7062 361.67 104.433 364.866C109.255 426.221 177.756 518.255 189.81 511.864C157.668 482.038 116.821 409.959 110.46 374.452C112.469 371.967 105.84 358.474 95.3936 358.474Z" fill="#D9D9D9"/>
</g>
<g filter="url(#filter7_f_440_823)">
<path d="M330.429 454.343L325.407 459.669C386.476 490.347 420.493 479.553 429.867 470.321C401.743 485.66 351.857 466.06 330.429 454.343Z" fill="#D9D9D9"/>
</g>
<defs>
<filter id="filter0_f_440_823" x="3.53291" y="0.918896" width="512.969" height="519.906" filterUnits="userSpaceOnUse" color-interpolation-filters="sRGB">
<feFlood flood-opacity="0" result="BackgroundImageFix"/>
<feBlend mode="normal" in="SourceGraphic" in2="BackgroundImageFix" result="shape"/>
<feGaussianBlur stdDeviation="11.85" result="effect1_foregroundBlur_440_823"/>
</filter>
<filter id="filter1_f_440_823" x="12.7798" y="19.0916" width="491.024" height="495.106" filterUnits="userSpaceOnUse" color-interpolation-filters="sRGB">
<feFlood flood-opacity="0" result="BackgroundImageFix"/>
<feBlend mode="normal" in="SourceGraphic" in2="BackgroundImageFix" result="shape"/>
<feGaussianBlur stdDeviation="5.65" result="effect1_foregroundBlur_440_823"/>
</filter>
<filter id="filter2_f_440_823" x="2.61182" y="159.545" width="110.844" height="207.726" filterUnits="userSpaceOnUse" color-interpolation-filters="sRGB">
<feFlood flood-opacity="0" result="BackgroundImageFix"/>
<feBlend mode="normal" in="SourceGraphic" in2="BackgroundImageFix" result="shape"/>
<feGaussianBlur stdDeviation="2" result="effect1_foregroundBlur_440_823"/>
</filter>
<filter id="filter3_f_440_823" x="103.96" y="34.47" width="87.0393" height="131.65" filterUnits="userSpaceOnUse" color-interpolation-filters="sRGB">
<feFlood flood-opacity="0" result="BackgroundImageFix"/>
<feBlend mode="normal" in="SourceGraphic" in2="BackgroundImageFix" result="shape"/>
<feGaussianBlur stdDeviation="3.25" result="effect1_foregroundBlur_440_823"/>
</filter>
<filter id="filter4_f_440_823" x="102.643" y="25.5276" width="96.9938" height="140.751" filterUnits="userSpaceOnUse" color-interpolation-filters="sRGB">
<feFlood flood-opacity="0" result="BackgroundImageFix"/>
<feBlend mode="normal" in="SourceGraphic" in2="BackgroundImageFix" result="shape"/>
<feGaussianBlur stdDeviation="1.9" result="effect1_foregroundBlur_440_823"/>
</filter>
<filter id="filter5_f_440_823" x="0.316553" y="232.663" width="173.265" height="142.973" filterUnits="userSpaceOnUse" color-interpolation-filters="sRGB">
<feFlood flood-opacity="0" result="BackgroundImageFix"/>
<feBlend mode="normal" in="SourceGraphic" in2="BackgroundImageFix" result="shape"/>
<feGaussianBlur stdDeviation="6.45" result="effect1_foregroundBlur_440_823"/>
</filter>
<filter id="filter6_f_440_823" x="46.6099" y="338.742" width="148.5" height="178.738" filterUnits="userSpaceOnUse" color-interpolation-filters="sRGB">
<feFlood flood-opacity="0" result="BackgroundImageFix"/>
<feBlend mode="normal" in="SourceGraphic" in2="BackgroundImageFix" result="shape"/>
<feGaussianBlur stdDeviation="2.65" result="effect1_foregroundBlur_440_823"/>
</filter>
<filter id="filter7_f_440_823" x="321.307" y="450.243" width="112.66" height="33.8183" filterUnits="userSpaceOnUse" color-interpolation-filters="sRGB">
<feFlood flood-opacity="0" result="BackgroundImageFix"/>
<feBlend mode="normal" in="SourceGraphic" in2="BackgroundImageFix" result="shape"/>
<feGaussianBlur stdDeviation="2.05" result="effect1_foregroundBlur_440_823"/>
</filter>
<linearGradient id="paint0_linear_440_823" x1="323.398" y1="119.867" x2="252.387" y2="495.683" gradientUnits="userSpaceOnUse">
<stop offset="0.444725" stop-color="#FADE3C"/>
<stop offset="1" stop-color="#F3B522" stop-opacity="0"/>
</linearGradient>
<linearGradient id="paint1_linear_440_823" x1="323.1" y1="125.64" x2="252.089" y2="501.456" gradientUnits="userSpaceOnUse">
<stop stop-color="#FADE3C" stop-opacity="0"/>
<stop offset="0.955" stop-color="#F3B522"/>
</linearGradient>
<linearGradient id="paint2_linear_440_823" x1="184.787" y1="59.2416" x2="81.7664" y2="154.381" gradientUnits="userSpaceOnUse">
<stop stop-color="#EF963B"/>
<stop offset="1" stop-color="#864401"/>
</linearGradient>
<radialGradient id="paint3_radial_440_823" cx="0" cy="0" r="1" gradientUnits="userSpaceOnUse" gradientTransform="translate(415.917 170.341) rotate(118.963) scale(56.0037 54.3522)">
<stop stop-opacity="0"/>
<stop offset="0.415" stop-color="#5D4747"/>
<stop offset="0.985"/>
</radialGradient>
<radialGradient id="paint4_radial_440_823" cx="0" cy="0" r="1" gradientUnits="userSpaceOnUse" gradientTransform="translate(413.909 188.45) rotate(145.164) scale(39.1595 40.0268)">
<stop offset="0.383443" stop-color="#5D4747" stop-opacity="0"/>
<stop offset="0.899829" stop-color="#AD5C42"/>
<stop offset="0.99531" stop-color="#F29C4D"/>
</radialGradient>
<radialGradient id="paint5_radial_440_823" cx="0" cy="0" r="1" gradientUnits="userSpaceOnUse" gradientTransform="translate(413.906 179.924) rotate(90) scale(6.38943 6.02485)">
<stop offset="0.595" stop-color="white" stop-opacity="0.8"/>
<stop offset="0.76" stop-color="white" stop-opacity="0.540816"/>
<stop offset="1" stop-color="#999999" stop-opacity="0"/>
</radialGradient>
<radialGradient id="paint6_radial_440_823" cx="0" cy="0" r="1" gradientUnits="userSpaceOnUse" gradientTransform="translate(266.593 188.661) rotate(118.963) scale(63.4709 61.5991)">
<stop stop-opacity="0"/>
<stop offset="0.415" stop-color="#5D4747"/>
<stop offset="0.985"/>
</radialGradient>
<radialGradient id="paint7_radial_440_823" cx="0" cy="0" r="1" gradientUnits="userSpaceOnUse" gradientTransform="translate(264.317 209.184) rotate(145.164) scale(44.3808 45.3638)">
<stop offset="0.383443" stop-color="#5D4747" stop-opacity="0"/>
<stop offset="0.899829" stop-color="#AD5C42"/>
<stop offset="0.99531" stop-color="#F29C4D"/>
</radialGradient>
<radialGradient id="paint8_radial_440_823" cx="0" cy="0" r="1" gradientUnits="userSpaceOnUse" gradientTransform="translate(264.315 199.521) rotate(90) scale(7.24136 6.82816)">
<stop offset="0.595" stop-color="white" stop-opacity="0.8"/>
<stop offset="0.76" stop-color="white" stop-opacity="0.540816"/>
<stop offset="1" stop-color="#999999" stop-opacity="0"/>
</radialGradient>
</defs>
</svg>
