<svg width="365" height="286" viewBox="0 0 365 286" fill="none" xmlns="http://www.w3.org/2000/svg">
<path d="M188.963 119.013L173.627 104.126L150.224 107.348L166.878 91.3175L164.668 72.9059L178.825 85.5547L203.16 84.2356L185.574 98.3636L188.963 119.013Z" fill="#FFDA03"/>
<path d="M117.169 117.717L108.512 109.314L95.3014 111.132L104.702 102.083L103.455 91.6903L111.446 98.8303L125.182 98.0857L115.256 106.061L117.169 117.717Z" fill="#080B0D"/>
<path d="M34.5993 100.924L28.5371 95.4125L18.8178 97.0469L25.9821 90.5635L25.4021 83.4698L31.0179 88.1344L41.0877 87.2214L33.573 92.9833L34.5993 100.924Z" fill="#FFDA03"/>
<path d="M21.3107 77.5946L15.2485 72.0829L5.52922 73.7173L12.6935 67.2339L12.1135 60.1402L17.7293 64.8048L27.7991 63.8919L20.2844 69.6537L21.3107 77.5946Z" fill="#080B0D"/>
<path d="M33.3332 126.912L27.271 121.4L17.5517 123.035L24.7159 116.551L24.136 109.458L29.7518 114.122L39.8216 113.209L32.3068 118.971L33.3332 126.912Z" fill="#080B0D"/>
<path d="M239.777 227.111L233.715 221.6L223.996 223.234L231.16 216.751L230.58 209.657L236.196 214.322L246.266 213.409L238.751 219.17L239.777 227.111Z" fill="#FFDA03"/>
<path d="M233.687 100.069L227.625 94.5577L217.906 96.1922L225.07 89.7088L224.49 82.6151L230.106 87.2796L240.176 86.3667L232.661 92.1286L233.687 100.069Z" fill="#080B0D"/>
<path d="M280.427 128.286L274.364 122.774L264.645 124.409L271.809 117.925L271.229 110.832L276.845 115.496L286.915 114.583L279.4 120.345L280.427 128.286Z" fill="#080B0D"/>
<path d="M283.454 199.977L277.392 194.465L267.673 196.1L274.837 189.616L274.257 182.522L279.873 187.187L289.943 186.274L282.428 192.036L283.454 199.977Z" fill="#080B0D"/>
<path d="M72.7084 179.088L66.6462 173.577L56.9269 175.211L64.0912 168.728L63.5112 161.634L69.127 166.299L79.1968 165.386L71.6821 171.148L72.7084 179.088Z" fill="#FFDA03"/>
<path d="M95.6567 198.285L87 189.882L73.7894 191.7L83.1901 182.651L81.9427 172.258L89.9338 179.398L103.671 178.654L93.7437 186.629L95.6567 198.285Z" fill="#080B0D"/>
<path d="M59.8381 154.569L51.1814 146.165L37.9708 147.984L47.3715 138.935L46.1241 128.542L54.1152 135.682L67.8519 134.937L57.9251 142.912L59.8381 154.569Z" fill="#FFDA03"/>
<path d="M123.171 213.05L114.514 204.647L101.303 206.465L110.704 197.416L109.457 187.023L117.448 194.163L131.184 193.419L121.258 201.394L123.171 213.05Z" fill="#FFDA03"/>
<path d="M69.3296 122.053L60.6728 113.65L47.4623 115.469L56.8629 106.42L55.6155 96.0268L63.6067 103.167L77.3434 102.422L67.4165 110.397L69.3296 122.053Z" fill="#FFDA03"/>
<path d="M96.8975 160.994L88.2407 152.591L75.0302 154.41L84.4308 145.361L83.1834 134.968L91.1745 142.108L104.911 141.363L94.9844 149.338L96.8975 160.994Z" fill="#FFDA03"/>
<path d="M300.087 114.116L284.751 99.2289L261.348 102.451L278.002 86.4201L275.792 68.0085L289.949 80.6573L314.284 79.3382L296.698 93.4661L300.087 114.116Z" fill="#FFDA03"/>
<path d="M211.892 246.436L196.556 231.549L173.153 234.771L189.807 218.741L187.597 200.329L201.754 212.978L226.089 211.659L208.503 225.787L211.892 246.436Z" fill="#FFDA03"/>
<path d="M142.991 177.663L127.655 162.777L104.252 165.999L120.906 149.968L118.696 131.556L132.853 144.205L157.188 142.886L139.602 157.014L142.991 177.663Z" fill="#FFDA03"/>
<path d="M333.481 208.846L318.145 193.959L294.742 197.181L311.396 181.15L309.186 162.738L323.343 175.387L347.678 174.068L330.092 188.196L333.481 208.846Z" fill="#FFDA03"/>
<path d="M291.158 143.965L248.229 163.332L254.821 199.441L221.697 175.302L178.769 194.67L201.226 160.384L168.102 136.245L215.105 139.194L237.562 104.908L244.154 141.016L291.158 143.965Z" fill="#FADE3C"/>
</svg>
